<svg width="100" height="115" viewBox="0 0 100 115" fill="none" xmlns="http://www.w3.org/2000/svg">
<path d="M60.0001 100.094H1.03906V1.52246H98.9611V100.094H89.3507" stroke="#595A5A" stroke-width="1.48052" stroke-miterlimit="10"/>
<path d="M50.2598 99.4445V1.52246" stroke="#595A5A" stroke-width="1.48052" stroke-miterlimit="10"/>
<path d="M85.3247 50.4834H99.2208" stroke="#595A5A" stroke-width="1.48052" stroke-miterlimit="10"/>
<path d="M1.29883 50.4834H64.0261" stroke="#595A5A" stroke-width="1.48052" stroke-miterlimit="10"/>
<path d="M86.3635 76.7174C86.3635 92.6914 75.0648 105.549 75.0648 105.549C75.0648 105.549 63.7661 92.6914 63.7661 76.7174C63.7661 60.7434 75.0648 48.0161 75.0648 48.0161C75.0648 48.0161 86.3635 60.8733 86.3635 76.7174Z" stroke="#595A5A" stroke-width="1.48052" stroke-miterlimit="10"/>
<path d="M76.1038 103.73H73.896V113.51H76.1038V103.73Z" fill="#595A5A" stroke="#595A5A" stroke-width="0.74026" stroke-miterlimit="10"/>
<path d="M33.7662 5.41846C34.0246 6.91983 34.155 8.44046 34.1558 9.96391C34.1558 16.7838 31.4466 23.3243 26.6243 28.1467C21.8019 32.969 15.2614 35.6782 8.44151 35.6782C7.13315 35.6769 5.82812 35.5464 4.54541 35.2886" stroke="#595A5A" stroke-width="1.48052" stroke-miterlimit="10"/>
<path d="M8.44189 46.1977V35.6782" stroke="#595A5A" stroke-width="1.48052" stroke-miterlimit="10"/>
<path d="M34.1558 9.96387H44.6752" stroke="#595A5A" stroke-width="1.48052" stroke-miterlimit="10"/>
<path d="M21.8185 42.0421L18.312 33.6006" stroke="#595A5A" stroke-width="1.48052" stroke-miterlimit="10"/>
<path d="M40.5196 42.0421L26.6235 28.146" stroke="#595A5A" stroke-width="1.48052" stroke-miterlimit="10"/>
<path d="M40.6496 23.2106L32.208 19.7041" stroke="#595A5A" stroke-width="1.48052" stroke-miterlimit="10"/>
</svg>
