<svg xmlns="http://www.w3.org/2000/svg" width="62" height="71" viewBox="0 0 62.9 72"><g id="b5641076-c86d-452d-8c2b-4bdf07ba04ef" data-name="レイヤー 2"><g id="f211c438-b713-4531-bcf5-b19d4c06a1d1" data-name="レイヤー 4"><path d="M19,45.8V5.8a5,5,0,0,0-5.1-5h0a5,5,0,0,0-5,5v40a13.2,13.2,0,1,0,10.1,0Z" style="fill:none;stroke:#595a5a;stroke-miterlimit:10;stroke-width:1.5px"/><path d="M19.2,58.2a5.3,5.3,0,1,1-5.3-5.3h1A5.4,5.4,0,0,1,19.2,58.2Z" style="fill:#595a5a"/><line x1="13.9" y1="9.8" x2="13.9" y2="54.1" style="fill:none;stroke:#595a5a;stroke-miterlimit:10;stroke-width:1.5px"/><path d="M54,45.8V5.8a5,5,0,0,0-5-5h0a5,5,0,0,0-5,5v40a13.2,13.2,0,1,0,10,0Z" style="fill:none;stroke:#595a5a;stroke-miterlimit:10;stroke-width:1.5px"/><path d="M54.3,58.2A5.3,5.3,0,1,1,49,52.9h.9A5.3,5.3,0,0,1,54.3,58.2Z" style="fill:#595a5a"/><line x1="49" y1="25.7" x2="49" y2="54.1" style="fill:none;stroke:#595a5a;stroke-miterlimit:10;stroke-width:1.5px"/></g></g></svg>
