<svg xmlns="http://www.w3.org/2000/svg" width="108" height="94" viewBox="0 0 108.6 94.6"><g id="abdba819-f64f-420e-a0cb-caee28f34d11" data-name="レイヤー 2"><g id="bb4baa96-e256-4ea6-b91d-2b211dafa126" data-name="レイヤー 4"><path d="M46.5,84.4C40.6,77.1,30.6,62.2,30.6,45c0-24.3,20-43.9,20-43.9s20,19.6,20,43.9c0,17.1-9.9,32-15.8,39.2" style="fill:none;stroke:#595a5a;stroke-miterlimit:10;stroke-width:1.5px"/><line x1="50.6" y1="19.5" x2="50.6" y2="94.6" style="fill:none;stroke:#595a5a;stroke-miterlimit:10;stroke-width:1.5px"/><line y1="42.6" x2="23.4" y2="42.6" style="fill:none;stroke:#595a5a;stroke-miterlimit:10;stroke-width:1.5px"/><line x1="23.4" y1="47.1" y2="47.1" style="fill:none;stroke:#595a5a;stroke-miterlimit:10;stroke-width:1.5px"/><line x1="4.7" y1="24.4" x2="28.2" y2="24.4" style="fill:none;stroke:#595a5a;stroke-miterlimit:10;stroke-width:1.5px"/><line x1="28.2" y1="28.8" x2="4.7" y2="28.8" style="fill:none;stroke:#595a5a;stroke-miterlimit:10;stroke-width:1.5px"/><line x1="4.7" y1="60.9" x2="28.2" y2="60.9" style="fill:none;stroke:#595a5a;stroke-miterlimit:10;stroke-width:1.5px"/><line x1="28.2" y1="65.4" x2="4.7" y2="65.4" style="fill:none;stroke:#595a5a;stroke-miterlimit:10;stroke-width:1.5px"/><polyline points="72.4 28.8 93.2 28.8 93.2 32.5 102.4 26.5 93.2 20.6 93.2 24.4 72.4 24.4" style="fill:none;stroke:#595a5a;stroke-miterlimit:10;stroke-width:1.5px"/><polyline points="72.4 65.4 93.2 65.4 93.2 68.8 102.4 62.8 93.2 56.9 93.2 60.9 72.4 60.9" style="fill:none;stroke:#595a5a;stroke-miterlimit:10;stroke-width:1.5px"/><polyline points="77.1 47.1 98 47.1 98 50.6 107.2 44.7 98 38.7 98 42.6 77.1 42.6" style="fill:none;stroke:#595a5a;stroke-miterlimit:10;stroke-width:1.5px"/></g></g></svg>
