<svg xmlns="http://www.w3.org/2000/svg" width="45" height="92" viewBox="0 0 45.7 92.9"><g id="f4fe38aa-21e7-4ca1-a1ed-16c43c1a8ee9" data-name="レイヤー 2"><g id="ab029691-3143-4b4e-91bd-261c7ea6592d" data-name="レイヤー 4"><polyline points="43.6 67.1 39.8 92.2 6.3 92.2 2.5 67.1" style="fill:none;stroke:#595a5a;stroke-miterlimit:10;stroke-width:1.5px"/><path d="M36.7,43.1h0a5.2,5.2,0,0,1-5.2-5.2v-.6c0-2.8,5.2-19.6,5.2-19.6s5.2,16.8,5.2,19.6v.6A5.2,5.2,0,0,1,36.7,43.1Z" style="fill:none;stroke:#595a5a;stroke-miterlimit:10;stroke-width:1.5px;fill-rule:evenodd"/><path d="M23.4,23.3h0a4.2,4.2,0,0,1-4.2-4.2v-.5c0-2.4,4.2-16.1,4.2-16.1s4.3,13.7,4.3,16.1v.5A4.2,4.2,0,0,1,23.4,23.3Z" style="fill:none;stroke:#595a5a;stroke-miterlimit:10;stroke-width:1.5px;fill-rule:evenodd"/><path d="M10,47.4h0a6.2,6.2,0,0,1-6.2-6.2v-.7c0-3.4,6.2-23.4,6.2-23.4s6.2,20,6.2,23.4v.7A6.2,6.2,0,0,1,10,47.4Z" style="fill:none;stroke:#595a5a;stroke-miterlimit:10;stroke-width:1.5px;fill-rule:evenodd"/><rect x="0.8" y="55.7" width="44.2" height="8.37" style="fill:none;stroke:#595a5a;stroke-miterlimit:10;stroke-width:1.5px"/></g></g></svg>
